<svg width="284" height="418" viewBox="0 100 284 418" fill="none" xmlns="http://www.w3.org/2000/svg">
<path d="M329.937 330.665L173.439 329.872C144.72 329.727 121.557 306.328 121.703 277.61V277.61C121.848 248.891 145.247 225.728 173.966 225.874L256.465 226.292" stroke="#3E5965" stroke-width="4" stroke-linecap="round"/>
<path d="M214.492 122.078L277.491 122.397C306.21 122.543 329.373 145.941 329.227 174.66V174.66C329.082 203.378 305.683 226.541 276.964 226.396L198.965 226" stroke="#3E5965" stroke-width="4" stroke-linecap="round"/>
<path d="M1.4949 120.998L21.5532 109.553L21.4361 132.647L1.4949 120.998ZM278.501 120.402C279.606 120.408 280.497 121.308 280.491 122.412C280.486 123.517 279.586 124.408 278.481 124.402L278.501 120.402ZM19.5048 119.09L278.501 120.402L278.481 124.402L19.4845 123.09L19.5048 119.09Z" fill="#3E5965"/>
</svg>
