<svg width="256" height="200" viewBox="0 0 256 200" fill="none" xmlns="http://www.w3.org/2000/svg">
<path d="M137.805 146.673L145.537 132.29L131.154 124.558L123.422 138.941L137.805 146.673ZM137.216 139.402L124.233 149.306L134.137 162.29L147.12 152.386L137.216 139.402ZM100 180C81.2223 180 66 164.778 66 146H62C62 166.987 79.0132 184 100 184V180ZM66 146C66 127.222 81.2223 112 100 112V108C79.0132 108 62 125.013 62 146H66ZM100 112C115.365 112 128.354 122.194 132.564 136.191L136.395 135.039C131.69 119.398 117.179 108 100 108V112ZM133.694 150.579C131.459 167.191 117.224 180 100 180V184C119.254 184 135.16 169.683 137.659 151.113L133.694 150.579Z" fill="#3E5965"/>
<path d="M171.596 136.684L179.31 122.291L164.917 114.577L157.203 128.97L171.596 136.684ZM172.162 144.063L159.172 153.959L169.069 166.949L182.058 157.053L172.162 144.063ZM100.319 214.615C62.2389 214.615 31.3846 183.887 31.3846 146H27.3846C27.3846 186.113 60.0468 218.615 100.319 218.615V214.615ZM31.3846 146C31.3846 108.113 62.2389 77.3846 100.319 77.3846V73.3846C60.0468 73.3846 27.3846 105.887 27.3846 146H31.3846ZM100.319 77.3846C131.48 77.3846 157.809 97.9649 166.342 126.209L170.171 125.052C161.139 95.1568 133.282 73.3846 100.319 73.3846V77.3846ZM168.633 155.238C164.103 188.757 135.249 214.615 100.319 214.615V218.615C137.264 218.615 167.801 191.264 172.597 155.774L168.633 155.238Z" fill="#3E5965"/>
<path d="M206.394 126.299L214.108 111.906L199.715 104.192L192.001 118.585L206.394 126.299ZM208.162 148.909L195.172 158.805L205.069 171.795L218.058 161.899L208.162 148.909ZM100.481 250.615C42.4294 250.615 -4.61536 203.769 -4.61536 146H-8.61536C-8.61536 205.995 40.2373 254.615 100.481 254.615V250.615ZM-4.61536 146C-4.61536 88.231 42.4294 41.3846 100.481 41.3846V37.3846C40.2373 37.3846 -8.61536 86.0049 -8.61536 146H-4.61536ZM100.481 41.3846C147.987 41.3846 188.13 72.7606 201.14 115.824L204.969 114.667C191.46 69.9526 149.789 37.3846 100.481 37.3846V41.3846ZM204.633 160.084C197.725 211.194 153.732 250.615 100.481 250.615V254.615C155.747 254.615 201.423 213.7 208.597 160.62L204.633 160.084Z" fill="#3E5965"/>
<path d="M242.53 115.515L250.244 101.122L235.851 93.408L228.137 107.801L242.53 115.515ZM245.547 153.942L232.557 163.838L242.453 176.828L255.443 166.931L245.547 153.942ZM100.65 288C21.8579 288 -42 224.416 -42 146H-46C-46 226.642 19.6658 292 100.65 292V288ZM-42 146C-42 67.584 21.8579 4 100.65 4V0C19.6658 0 -46 65.358 -46 146H-42ZM100.65 4C165.13 4 219.616 46.5869 237.276 105.04L241.105 103.883C222.946 43.7789 166.932 0 100.65 0V4ZM242.018 165.117C232.641 234.493 172.927 288 100.65 288V292C174.942 292 236.339 237 245.982 165.652L242.018 165.117Z" fill="#3E5965"/>
</svg>
