<svg width="279" height="335" viewBox="0 0 279 335" fill="none" xmlns="http://www.w3.org/2000/svg">
<path d="M-51.6124 87.6819L104.887 88.1737C133.606 88.264 156.813 111.618 156.723 140.337V140.337C156.633 169.056 133.279 192.263 104.56 192.173L22.0604 191.914" stroke="#3E5965" stroke-width="4" stroke-linecap="round"/>
<path d="M64.2334 296.047L1.23366 295.849C-27.485 295.759 -50.6929 272.405 -50.6027 243.686V243.686C-50.5124 214.967 -27.1582 191.759 1.5605 191.85L79.5601 192.095" stroke="#3E5965" stroke-width="4" stroke-linecap="round"/>
<path d="M277.232 296.716L257.196 308.2L257.269 285.107L277.232 296.716ZM0.227385 297.846C-0.877193 297.842 -1.76979 296.944 -1.76632 295.84C-1.76285 294.735 -0.864623 293.842 0.239956 293.846L0.227385 297.846ZM259.226 298.66L0.227385 297.846L0.239956 293.846L259.239 294.66L259.226 298.66Z" fill="#3E5965"/>
</svg>
