<svg width="321" height="321" viewBox="50 0 321 321" fill="none" xmlns="http://www.w3.org/2000/svg">
<g opacity="0.4">
<circle cx="160.5" cy="160.5" r="157.981" stroke="#346F8B" stroke-width="5.03773"/>
<path d="M283.355 78.8627C282.188 80.0293 282.188 81.9208 283.355 83.0873C284.521 84.2539 286.413 84.2539 287.579 83.0874L283.355 78.8627ZM310.542 60.1243C311.709 58.9577 311.709 57.0663 310.542 55.8997C309.376 54.7331 307.484 54.7331 306.318 55.8997L310.542 60.1243ZM83.3286 287.338C84.4952 286.172 84.4952 284.28 83.3286 283.114C82.162 281.947 80.2705 281.947 79.104 283.114L83.3286 287.338ZM287.579 83.0874L310.542 60.1243L306.318 55.8997L283.355 78.8627L287.579 83.0874ZM54.806 315.861L83.3286 287.338L79.104 283.114L50.5814 311.636L54.806 315.861Z" fill="#346F8B"/>
<path fill-rule="evenodd" clip-rule="evenodd" d="M160.499 308.431C242.199 308.431 308.43 242.2 308.43 160.5C308.43 132.379 300.584 106.091 286.961 83.7058L83.7051 286.961C106.091 300.584 132.379 308.431 160.499 308.431ZM78.5445 283.673C38.7711 257.156 12.5686 211.888 12.5686 160.5C12.5686 78.8 78.7994 12.5692 160.499 12.5692C211.887 12.5692 257.156 38.7718 283.672 78.5451L78.5445 283.673Z" fill="#1E6586"/>
</g>
</svg>
