<svg width="1293" height="279" viewBox="0 0 1293 279" fill="none" xmlns="http://www.w3.org/2000/svg">
<g opacity="0.06" filter="url(#filter0_d_230_14)">
<path d="M-4.28548 48.2479V282H24.0987V48.2479H-4.28548ZM115.93 48.2479L15.4165 158.445L120.939 282H156.002L49.8114 157.777L150.993 48.2479H115.93ZM141.183 128.391L214.648 293.688L288.113 128.391H258.059L214.648 236.919L171.237 128.391H141.183ZM367.85 285.339C384.324 285.339 398.572 282.111 410.593 275.655C422.837 268.977 432.967 259.181 440.981 246.269L419.275 232.578C413.71 241.928 406.92 248.941 398.906 253.616C390.891 258.068 381.652 260.294 371.189 260.294C360.726 260.294 351.821 258.068 344.475 253.616C337.128 249.163 331.563 242.707 327.778 234.248C323.994 225.788 322.101 215.548 322.101 203.526C322.324 191.727 324.328 181.821 328.112 173.806C332.119 165.569 337.685 159.336 344.809 155.106C352.155 150.654 360.949 148.427 371.189 148.427C379.871 148.427 387.441 150.32 393.897 154.104C400.353 157.889 405.362 163.12 408.923 169.799C412.708 176.478 414.6 184.381 414.6 193.508C414.6 195.066 414.266 197.07 413.599 199.519C412.931 201.745 412.263 203.415 411.595 204.528L422.281 189.167H312.083V211.874H443.318C443.318 211.429 443.318 210.427 443.318 208.869C443.541 207.088 443.652 205.418 443.652 203.86C443.652 187.609 440.758 173.584 434.97 161.785C429.182 149.986 420.834 140.97 409.925 134.736C399.239 128.28 386.327 125.052 371.189 125.052C356.051 125.052 342.694 128.391 331.117 135.07C319.764 141.749 310.859 151.099 304.403 163.12C298.17 175.142 295.053 189.167 295.053 205.196C295.053 221.002 298.058 234.916 304.069 246.937C310.302 258.959 318.873 268.42 329.782 275.321C340.913 282 353.602 285.339 367.85 285.339ZM456.892 128.391V153.436H533.696V128.391H456.892ZM481.937 74.9625V282H508.652V74.9625H481.937ZM587.204 21.5334H560.489V282H587.204V21.5334ZM658.999 188.499V282H685.714V185.16C685.714 171.803 683.487 160.672 679.035 151.767C674.805 142.862 668.683 136.183 660.669 131.731C652.877 127.278 643.638 125.052 632.952 125.052C622.267 125.052 612.805 127.835 604.568 133.4C596.554 138.966 590.209 146.535 585.534 156.108C580.859 165.458 578.522 176.255 578.522 188.499H587.204C587.204 181.153 588.762 174.585 591.879 168.797C595.218 163.009 599.782 158.445 605.57 155.106C611.581 151.767 618.482 150.097 626.274 150.097C637.182 150.097 645.308 153.325 650.651 159.781C656.216 166.237 658.999 175.81 658.999 188.499ZM795.374 285.339C811.847 285.339 826.095 282.111 838.117 275.655C850.361 268.977 860.49 259.181 868.505 246.269L846.799 232.578C841.233 241.928 834.444 248.941 826.429 253.616C818.415 258.068 809.176 260.294 798.713 260.294C788.25 260.294 779.345 258.068 771.998 253.616C764.652 249.163 759.086 242.707 755.302 234.248C751.517 225.788 749.625 215.548 749.625 203.526C749.848 191.727 751.851 181.821 755.636 173.806C759.643 165.569 765.208 159.336 772.332 155.106C779.679 150.654 788.472 148.427 798.713 148.427C807.395 148.427 814.964 150.32 821.42 154.104C827.876 157.889 832.885 163.12 836.447 169.799C840.232 176.478 842.124 184.381 842.124 193.508C842.124 195.066 841.79 197.07 841.122 199.519C840.454 201.745 839.786 203.415 839.119 204.528L849.804 189.167H739.607V211.874H870.842C870.842 211.429 870.842 210.427 870.842 208.869C871.065 207.088 871.176 205.418 871.176 203.86C871.176 187.609 868.282 173.584 862.494 161.785C856.706 149.986 848.357 140.97 837.449 134.736C826.763 128.28 813.851 125.052 798.713 125.052C783.575 125.052 770.217 128.391 758.641 135.07C747.287 141.749 738.383 151.099 731.927 163.12C725.693 175.142 722.576 189.167 722.576 205.196C722.576 221.002 725.582 234.916 731.593 246.937C737.826 258.959 746.397 268.42 757.305 275.321C768.436 282 781.126 285.339 795.374 285.339ZM934.506 221.892V128.391H907.791V225.232C907.791 243.487 912.577 258.068 922.15 268.977C931.723 279.885 944.524 285.339 960.552 285.339C970.793 285.339 979.698 283.113 987.267 278.661C994.836 273.986 1001.18 267.084 1006.3 257.957V282H1033.02V128.391H1006.3V221.892C1006.3 229.461 1004.63 236.14 1001.29 241.928C998.175 247.716 993.611 252.28 987.601 255.619C981.813 258.736 975.023 260.294 967.231 260.294C956.545 260.294 948.419 256.955 942.854 250.277C937.288 243.598 934.506 234.136 934.506 221.892ZM1089.58 234.916L1068.54 247.939C1071.44 253.95 1075.67 259.849 1081.23 265.637C1087.02 271.426 1094.03 276.212 1102.27 279.996C1110.51 283.558 1119.75 285.339 1129.99 285.339C1145.79 285.339 1158.48 280.887 1168.05 271.982C1177.85 263.077 1182.75 251.946 1182.75 238.589C1182.75 229.461 1180.52 222.004 1176.07 216.215C1171.84 210.427 1166.05 205.53 1158.7 201.523C1151.36 197.293 1143.23 193.397 1134.33 189.835C1128.98 187.609 1123.86 185.271 1118.97 182.822C1114.07 180.373 1110.06 177.591 1106.94 174.474C1103.83 171.357 1102.27 167.795 1102.27 163.788C1102.27 158.668 1104.27 154.883 1108.28 152.435C1112.29 149.986 1117.07 148.761 1122.64 148.761C1130.65 148.761 1137.78 150.654 1144.01 154.438C1150.47 158.223 1155.81 163.009 1160.04 168.797L1181.41 155.106C1178.29 149.318 1173.95 144.198 1168.39 139.745C1162.82 135.293 1156.37 131.731 1149.02 129.059C1141.9 126.388 1134.22 125.052 1125.98 125.052C1117.74 125.052 1109.73 126.499 1101.94 129.393C1094.37 132.287 1088.13 136.74 1083.24 142.751C1078.56 148.761 1076.22 156.33 1076.22 165.458C1076.22 174.363 1078.45 181.821 1082.9 187.831C1087.58 193.619 1093.25 198.406 1099.93 202.19C1106.83 205.752 1113.62 208.869 1120.3 211.54C1126.31 213.767 1131.99 216.215 1137.33 218.887C1142.68 221.336 1147.02 224.452 1150.36 228.237C1153.92 231.799 1155.7 236.251 1155.7 241.594C1155.7 247.605 1153.47 252.391 1149.02 255.953C1144.79 259.293 1138.89 260.962 1131.32 260.962C1125.09 260.962 1119.3 259.849 1113.96 257.623C1108.84 255.174 1104.27 251.946 1100.27 247.939C1096.26 243.932 1092.7 239.591 1089.58 234.916Z" fill="white"/>
<path d="M1224.6 268.643C1224.6 273.54 1226.38 277.882 1229.94 281.666C1233.72 285.228 1238.06 287.009 1242.96 287.009C1248.08 287.009 1252.42 285.228 1255.99 281.666C1259.55 277.882 1261.33 273.54 1261.33 268.643C1261.33 263.522 1259.55 259.181 1255.99 255.619C1252.42 252.057 1248.08 250.277 1242.96 250.277C1238.06 250.277 1233.72 252.057 1229.94 255.619C1226.38 259.181 1224.6 263.522 1224.6 268.643Z" fill="#00E6F6"/>
</g>
<defs>
<filter id="filter0_d_230_14" x="-25.1561" y="0.662666" width="1317.79" height="324.331" filterUnits="userSpaceOnUse" color-interpolation-filters="sRGB">
<feFlood flood-opacity="0" result="BackgroundImageFix"/>
<feColorMatrix in="SourceAlpha" type="matrix" values="0 0 0 0 0 0 0 0 0 0 0 0 0 0 0 0 0 0 127 0" result="hardAlpha"/>
<feOffset dx="5.21768" dy="5.21768"/>
<feGaussianBlur stdDeviation="13.0442"/>
<feComposite in2="hardAlpha" operator="out"/>
<feColorMatrix type="matrix" values="0 0 0 0 0 0 0 0 0 0 0 0 0 0 0 0 0 0 0.25 0"/>
<feBlend mode="normal" in2="BackgroundImageFix" result="effect1_dropShadow_230_14"/>
<feBlend mode="normal" in="SourceGraphic" in2="effect1_dropShadow_230_14" result="shape"/>
</filter>
</defs>
</svg>
