<svg width="141" height="141" viewBox="0 0 141 141" fill="none" xmlns="http://www.w3.org/2000/svg">
<circle cx="70.5" cy="70.5" r="70.5" fill="#003550"/>
<g filter="url(#filter0_d_192_20)">
<path d="M47.074 46.7968V93.4268H52.7362V46.7968H47.074ZM71.0551 46.7968L51.0043 68.7795L72.0543 93.4268H79.0488L57.8655 68.6463L78.0496 46.7968H71.0551Z" fill="white"/>
<path d="M85.7389 90.7622C85.7389 91.7392 86.0941 92.6052 86.8047 93.3601C87.5596 94.0707 88.4256 94.426 89.4026 94.426C90.4241 94.426 91.29 94.0707 92.0006 93.3601C92.7111 92.6052 93.0664 91.7392 93.0664 90.7622C93.0664 89.7408 92.7111 88.8748 92.0006 88.1642C91.29 87.4537 90.4241 87.0984 89.4026 87.0984C88.4256 87.0984 87.5596 87.4537 86.8047 88.1642C86.0941 88.8748 85.7389 89.7408 85.7389 90.7622Z" fill="#00E6F6"/>
</g>
<defs>
<filter id="filter0_d_192_20" x="45.2976" y="45.0204" width="50.4333" height="52.0701" filterUnits="userSpaceOnUse" color-interpolation-filters="sRGB">
<feFlood flood-opacity="0" result="BackgroundImageFix"/>
<feColorMatrix in="SourceAlpha" type="matrix" values="0 0 0 0 0 0 0 0 0 0 0 0 0 0 0 0 0 0 127 0" result="hardAlpha"/>
<feOffset dx="0.444094" dy="0.444094"/>
<feGaussianBlur stdDeviation="1.11024"/>
<feComposite in2="hardAlpha" operator="out"/>
<feColorMatrix type="matrix" values="0 0 0 0 0 0 0 0 0 0 0 0 0 0 0 0 0 0 0.25 0"/>
<feBlend mode="normal" in2="BackgroundImageFix" result="effect1_dropShadow_192_20"/>
<feBlend mode="normal" in="SourceGraphic" in2="effect1_dropShadow_192_20" result="shape"/>
</filter>
</defs>
</svg>
